<svg xmlns="http://www.w3.org/2000/svg" viewBox="0 0 800 800" role="img">
<defs><linearGradient id="bg" x1="0" y1="0" x2="1" y2="1"><stop offset="0" stop-color="#f4efe9"/><stop offset="1" stop-color="#e8ddd0"/></linearGradient></defs>
<rect width="800" height="800" fill="url(#bg)"/>
<ellipse cx="400" cy="640" rx="230" ry="26" fill="#000" opacity="0.08"/>

<rect x="285" y="200" width="230" height="420" rx="110" fill="#3f3f46"/>
<rect x="305" y="225" width="190" height="370" rx="95" fill="#52525b"/>
<g fill="#3f3f46"><circle cx="340" cy="290" r="5"/><circle cx="364" cy="290" r="5"/><circle cx="388" cy="290" r="5"/><circle cx="412" cy="290" r="5"/><circle cx="436" cy="290" r="5"/><circle cx="460" cy="290" r="5"/><circle cx="340" cy="320" r="5"/><circle cx="364" cy="320" r="5"/><circle cx="388" cy="320" r="5"/><circle cx="412" cy="320" r="5"/><circle cx="436" cy="320" r="5"/><circle cx="460" cy="320" r="5"/><circle cx="340" cy="350" r="5"/><circle cx="364" cy="350" r="5"/><circle cx="388" cy="350" r="5"/><circle cx="412" cy="350" r="5"/><circle cx="436" cy="350" r="5"/><circle cx="460" cy="350" r="5"/><circle cx="340" cy="380" r="5"/><circle cx="364" cy="380" r="5"/><circle cx="388" cy="380" r="5"/><circle cx="412" cy="380" r="5"/><circle cx="436" cy="380" r="5"/><circle cx="460" cy="380" r="5"/><circle cx="340" cy="410" r="5"/><circle cx="364" cy="410" r="5"/><circle cx="388" cy="410" r="5"/><circle cx="412" cy="410" r="5"/><circle cx="436" cy="410" r="5"/><circle cx="460" cy="410" r="5"/><circle cx="340" cy="440" r="5"/><circle cx="364" cy="440" r="5"/><circle cx="388" cy="440" r="5"/><circle cx="412" cy="440" r="5"/><circle cx="436" cy="440" r="5"/><circle cx="460" cy="440" r="5"/><circle cx="340" cy="470" r="5"/><circle cx="364" cy="470" r="5"/><circle cx="388" cy="470" r="5"/><circle cx="412" cy="470" r="5"/><circle cx="436" cy="470" r="5"/><circle cx="460" cy="470" r="5"/><circle cx="340" cy="500" r="5"/><circle cx="364" cy="500" r="5"/><circle cx="388" cy="500" r="5"/><circle cx="412" cy="500" r="5"/><circle cx="436" cy="500" r="5"/><circle cx="460" cy="500" r="5"/><circle cx="340" cy="530" r="5"/><circle cx="364" cy="530" r="5"/><circle cx="388" cy="530" r="5"/><circle cx="412" cy="530" r="5"/><circle cx="436" cy="530" r="5"/><circle cx="460" cy="530" r="5"/></g>
<rect x="355" y="560" width="90" height="10" rx="5" fill="#a1a1aa"/>
</svg>
