<svg xmlns="http://www.w3.org/2000/svg" viewBox="0 0 800 800" role="img">
<defs><radialGradient id="bg" cx="50%" cy="38%" r="78%"><stop offset="0" stop-color="#ffffff"/><stop offset=".6" stop-color="#f1f1f3"/><stop offset="1" stop-color="#d9d9de"/></radialGradient></defs>
<rect width="800" height="800" fill="url(#bg)"/>
<ellipse cx="400" cy="672" rx="230" ry="20" fill="#000" opacity="0.12"/>
<g transform="translate(152,30) scale(0.62)">
<path d="M300 220 q20 -60 40 -70 M500 220 q-20 -60 -40 -70" stroke="rgb(127,14,46)" stroke-width="22" fill="none" stroke-linecap="round"/>
<path d="M270 250 q130 -60 260 0 l10 170 q-140 40 -280 0 z" fill="#9f1239"/>
<path d="M272 370 q128 40 256 0 l4 50 q-132 40 -264 0 z" fill="rgb(127,14,46)"/>
<path d="M330 260 q70 50 140 0" stroke="rgb(199,23,71)" stroke-width="6" fill="none" opacity=".5"/></g><g transform="translate(160,245) scale(0.6)">
<path d="M290 150 h220 l12 70 l-30 440 h-70 l-22 -330 l-22 330 h-70 l-30 -440 z" fill="#9f1239"/>
<rect x="290" y="150" width="220" height="44" rx="8" fill="rgb(127,14,46)"/>
<path d="M400 230 v120" stroke="rgb(119,14,43)" stroke-width="4"/>
<path d="M335 300 q-10 160 0 340 M465 300 q10 160 0 340" stroke="rgb(191,22,68)" stroke-width="6" fill="none" opacity=".35"/></g>
</svg>
