<svg xmlns="http://www.w3.org/2000/svg" viewBox="0 0 800 800" role="img">
<defs><radialGradient id="bg" cx="50%" cy="38%" r="78%"><stop offset="0" stop-color="#ffffff"/><stop offset=".6" stop-color="#f1f1f3"/><stop offset="1" stop-color="#d9d9de"/></radialGradient></defs>
<rect width="800" height="800" fill="url(#bg)"/>
<ellipse cx="400" cy="672" rx="230" ry="20" fill="#000" opacity="0.12"/>
<g transform="translate(235,260)"><rect x="90" y="55" width="150" height="34" rx="10" fill="#d4af37"/>
<polygon points="20,10 70,10 95,72 70,134 20,134 -5,72" fill="#18181b"/><polygon points="260,10 310,10 335,72 310,134 260,134 235,72" fill="#18181b"/></g><g transform="translate(235,430)"><rect x="90" y="55" width="150" height="34" rx="10" fill="#d4af37"/>
<polygon points="20,10 70,10 95,72 70,134 20,134 -5,72" fill="#18181b"/><polygon points="260,10 310,10 335,72 310,134 260,134 235,72" fill="#18181b"/></g>
</svg>
