<svg xmlns="http://www.w3.org/2000/svg" viewBox="0 0 800 800" role="img">
<defs><radialGradient id="bg" cx="50%" cy="38%" r="78%"><stop offset="0" stop-color="#ffffff"/><stop offset=".6" stop-color="#f1f1f3"/><stop offset="1" stop-color="#d9d9de"/></radialGradient>
<linearGradient id="scr" x1="0" y1="0" x2="1" y2="1"><stop offset="0" stop-color="#ff4450"/><stop offset=".5" stop-color="#df2531"/><stop offset="1" stop-color="#3a070b"/></linearGradient>
<linearGradient id="scr2" x1="0" y1="0" x2="1" y2="1"><stop offset="0" stop-color="#3f3f46"/><stop offset=".55" stop-color="#18181b"/><stop offset="1" stop-color="#df2531"/></linearGradient>
<linearGradient id="scr3" x1="0" y1="0" x2="1" y2="1"><stop offset="0" stop-color="#1c1c1f"/><stop offset=".6" stop-color="#7a0f16"/><stop offset="1" stop-color="#df2531"/></linearGradient></defs>
<rect width="800" height="800" fill="url(#bg)"/>
<ellipse cx="400" cy="662" rx="230" ry="22" fill="#000" opacity="0.12"/>

<rect x="150" y="220" width="500" height="360" rx="34" fill="#1f2937"/>
<rect x="168" y="238" width="464" height="324" rx="22" fill="url(#scr3)"/>
<g fill="#fff" opacity=".35"><rect x="205" y="280" width="58" height="58" rx="14"/><rect x="287" y="280" width="58" height="58" rx="14"/><rect x="369" y="280" width="58" height="58" rx="14"/><rect x="451" y="280" width="58" height="58" rx="14"/><rect x="533" y="280" width="58" height="58" rx="14"/><rect x="205" y="380" width="58" height="58" rx="14"/><rect x="287" y="380" width="58" height="58" rx="14"/><rect x="369" y="380" width="58" height="58" rx="14"/><rect x="451" y="380" width="58" height="58" rx="14"/><rect x="533" y="380" width="58" height="58" rx="14"/></g>
<rect x="320" y="520" width="160" height="14" rx="7" fill="#fff" opacity=".5"/>
</svg>
